<?xml version="1.0" encoding="UTF-8"?>
<svg width="37px" height="33px" viewBox="0 0 37 33" version="1.1" xmlns="http://www.w3.org/2000/svg" xmlns:xlink="http://www.w3.org/1999/xlink">
    <g id="Page-1" stroke="none" stroke-width="1" fill="none" fill-rule="evenodd">
        <g id="Desktop-HD" transform="translate(-917.000000, -1897.000000)">
            <g id="coin-purse-1" transform="translate(914.000000, 1888.000000)">
                <g id="Filled_Icons" transform="translate(3.000000, 9.000000)" fill="#D5B893">
                    <g id="Group">
                        <path d="M18.5,11.6470588 C8.2991,11.6470588 0,20.3551765 0,31.0588235 C0,32.1303529 0.8288,33 1.85,33 L35.15,33 C36.1712,33 37,32.1303529 37,31.0588235 C37,20.3551765 28.7009,11.6470588 18.5,11.6470588 Z" id="Shape"></path>
                        <path d="M18.5,9.70588235 C24.25165,9.70588235 29.76835,12.3012353 33.63485,16.8241765 L36.3895,14.2327059 C33.24265,10.5502941 29.1597,7.98405882 24.7049,6.72423529 C25.43565,6.01376471 25.9,5.00823529 25.9,3.88235294 C25.9,1.73541176 24.2424,0 22.2,0 C20.1576,0 18.5,1.73541176 18.5,3.88235294 C18.5,4.60447059 18.6998,5.27417647 19.0291,5.85264706 C18.8515,5.84876471 18.6776,5.82352941 18.5,5.82352941 C18.3224,5.82352941 18.1485,5.84876471 17.9709,5.85264706 C18.3002,5.27417647 18.5,4.60447059 18.5,3.88235294 C18.5,1.73541176 16.8424,0 14.8,0 C12.7576,0 11.1,1.73541176 11.1,3.88235294 C11.1,5.00823529 11.56435,6.01376471 12.2951,6.72423529 C7.8403,7.98405882 3.75735,10.5522353 0.6105,14.2346471 L3.36515,16.8261176 C7.23165,12.3012353 12.74835,9.70588235 18.5,9.70588235 Z" id="Shape"></path>
                    </g>
                </g>
            </g>
        </g>
    </g>
</svg>
