<?xml version="1.0" encoding="UTF-8"?>
<svg width="55px" height="46px" viewBox="0 0 55 46" version="1.1" xmlns="http://www.w3.org/2000/svg" xmlns:xlink="http://www.w3.org/1999/xlink">
    <!-- Generator: Sketch 52.2 (67145) - http://www.bohemiancoding.com/sketch -->
    <title>coins.1</title>
    <desc>Created with Sketch.</desc>
    <g id="Page-1" stroke="none" stroke-width="1" fill="none" fill-rule="evenodd">
        <g id="Desktop-HD" transform="translate(-1144.000000, -4661.000000)" fill="#D5B893" fill-rule="nonzero">
            <g id="coins.1" transform="translate(1144.000000, 4661.000000)">
                <g id="Group">
                    <path d="M12.564,31.8969474 C17.16075,31.8969474 24.939,30.9441579 24.939,27.3706316 L24.939,26.8863158 C21.492,29.369 15.03,29.6337895 12.564,29.6337895 C10.098,29.6337895 3.636,29.369 0.189,26.8863158 L0.189,27.3706316 C0.189,30.9418947 7.96725,31.8969474 12.564,31.8969474 Z" id="Shape"></path>
                    <path d="M0.189,17.8314211 L0.189,18.3157368 C0.189,21.8892632 7.96725,22.8420526 12.564,22.8420526 C17.16075,22.8420526 24.939,21.8892632 24.939,18.3157368 L24.939,17.8314211 C21.492,20.3141053 15.03,20.5788947 12.564,20.5788947 C10.098,20.5788947 3.63825,20.3141053 0.189,17.8314211 Z" id="Shape"></path>
                    <path d="M0.189,13.3051053 L0.189,13.7894211 C0.189,17.3629474 7.96725,18.3157368 12.564,18.3157368 C17.16075,18.3157368 24.939,17.3629474 24.939,13.7894211 L24.939,13.3051053 C21.492,15.7877895 15.03,16.0525789 12.564,16.0525789 C10.098,16.0525789 3.63825,15.7877895 0.189,13.3051053 Z" id="Shape"></path>
                    <path d="M0.189,22.3577368 L0.189,22.8420526 C0.189,26.4155789 7.96725,27.3683684 12.564,27.3683684 C17.16075,27.3683684 24.939,26.4155789 24.939,22.8420526 L24.939,22.3577368 C21.492,24.8404211 15.03,25.1052105 12.564,25.1052105 C10.098,25.1052105 3.63825,24.8404211 0.189,22.3577368 Z" id="Shape"></path>
                    <path d="M12.564,38.6864211 C10.098,38.6864211 3.636,38.4216316 0.189,35.9389474 L0.189,36.4232632 C0.189,39.5328421 6.60375,40.9495789 12.564,40.9495789 C18.52425,40.9495789 24.939,39.5328421 24.939,36.4232632 L24.939,35.9389474 C21.492,38.4193684 15.03,38.6864211 12.564,38.6864211 Z" id="Shape"></path>
                    <path d="M12.564,9.26536842 C17.16075,9.26536842 24.939,8.31257895 24.939,4.73905263 C24.939,1.62947368 18.52425,0.212736842 12.564,0.212736842 C6.60375,0.212736842 0.189,1.62947368 0.189,4.73905263 C0.189,8.31031579 7.96725,9.26536842 12.564,9.26536842 Z" id="Shape"></path>
                    <path d="M12.564,36.4232632 C17.16075,36.4232632 24.939,35.4704737 24.939,31.8969474 L24.939,31.4126316 C21.492,33.8953158 15.03,34.1601053 12.564,34.1601053 C10.098,34.1601053 3.636,33.8953158 0.189,31.4126316 L0.189,31.8969474 C0.189,35.4682105 7.96725,36.4232632 12.564,36.4232632 Z" id="Shape"></path>
                    <path d="M0.189,8.77878947 L0.189,9.26310526 C0.189,12.8366316 7.96725,13.7894211 12.564,13.7894211 C17.16075,13.7894211 24.939,12.8366316 24.939,9.26310526 L24.939,8.77878947 C21.492,11.2614737 15.03,11.5262632 12.564,11.5262632 C10.098,11.5262632 3.63825,11.2614737 0.189,8.77878947 Z" id="Shape"></path>
                </g>
                <g id="Group" transform="translate(30.000000, 23.000000)">
                    <path d="M0.189,8.81590909 L0.189,9.30227273 C0.189,12.8909091 7.96725,13.8477273 12.564,13.8477273 C17.16075,13.8477273 24.939,12.8909091 24.939,9.30227273 L24.939,8.81590909 C21.492,11.3090909 15.03,11.575 12.564,11.575 C10.098,11.575 3.63825,11.3090909 0.189,8.81590909 Z" id="Shape"></path>
                    <path d="M12.564,18.3954545 C17.16075,18.3954545 24.939,17.4386364 24.939,13.85 L24.939,13.3636364 C21.492,15.8568182 15.03,16.1227273 12.564,16.1227273 C10.098,16.1227273 3.636,15.8568182 0.189,13.3636364 L0.189,13.85 C0.189,17.4363636 7.96725,18.3954545 12.564,18.3954545 Z" id="Shape"></path>
                    <path d="M12.564,20.6681818 C10.098,20.6681818 3.636,20.4022727 0.189,17.9090909 L0.189,18.3954545 C0.189,21.5181818 6.60375,22.9409091 12.564,22.9409091 C18.52425,22.9409091 24.939,21.5181818 24.939,18.3954545 L24.939,17.9090909 C21.492,20.4 15.03,20.6681818 12.564,20.6681818 Z" id="Shape"></path>
                    <path d="M12.564,9.30454545 C17.16075,9.30454545 24.939,8.34772727 24.939,4.75909091 C24.939,1.63636364 18.52425,0.213636364 12.564,0.213636364 C6.60375,0.213636364 0.189,1.63636364 0.189,4.75909091 C0.189,8.34545455 7.96725,9.30454545 12.564,9.30454545 Z" id="Shape"></path>
                </g>
            </g>
        </g>
    </g>
</svg>