<?xml version="1.0" encoding="UTF-8"?>
<svg width="16px" height="16px" viewBox="0 0 16 16" version="1.1" xmlns="http://www.w3.org/2000/svg" xmlns:xlink="http://www.w3.org/1999/xlink">
    <!-- Generator: Sketch 52.2 (67145) - http://www.bohemiancoding.com/sketch -->
    <title>Filled_Icons</title>
    <desc>Created with Sketch.</desc>
    <g id="Page-1" stroke="none" stroke-width="1" fill="none" fill-rule="evenodd">
        <g id="Desktop-HD" transform="translate(-1092.000000, -6360.000000)" fill="#E21C21" fill-rule="nonzero">
            <g id="at-sign" transform="translate(1091.000000, 6360.000000)">
                <g id="Filled_Icons" transform="translate(1.000000, 0.000000)">
                    <path d="M7.63636364,0 C3.42618182,0 0,3.42545455 0,7.63636364 C0,11.8472727 3.42618182,15.2727273 7.63636364,15.2727273 C9.19345455,15.2727273 10.6858182,14.8123636 11.9527273,13.9432727 L10.7185455,12.1432727 C9.816,12.7629091 8.74981818,13.0909091 7.63636364,13.0909091 C4.62836364,13.0909091 2.18181818,10.6443636 2.18181818,7.63636364 C2.18181818,4.62836364 4.62836364,2.18181818 7.63636364,2.18181818 C10.6443636,2.18181818 13.0909091,4.62836364 13.0909091,7.63636364 L13.0909091,8.20581818 C13.0909091,8.672 12.9869091,9.45454545 12.2909091,9.45454545 L12.0007273,9.45454545 C11.7883636,9.44654545 11.3592727,9.03127273 11.3454545,8.82254545 L11.3454545,7.63636364 C11.3454545,5.59127273 9.68145455,3.92727273 7.63636364,3.92727273 C5.59127273,3.92727273 3.92727273,5.59054545 3.92727273,7.63636364 C3.92727273,9.68218182 5.59054545,11.3454545 7.63636364,11.3454545 C8.488,11.3454545 9.264,11.0458182 9.89163636,10.5607273 C10.4378182,11.1898182 11.2189091,11.6363636 12,11.6363636 L12.2909091,11.6363636 C14.0465455,11.6363636 15.2727273,10.2261818 15.2727273,8.20581818 L15.2727273,7.63636364 C15.2727273,3.42545455 11.8465455,0 7.63636364,0 Z M7.63636364,9.16290909 C6.79418182,9.16290909 6.10909091,8.47854545 6.10909091,7.63563636 C6.10909091,6.79418182 6.79345455,6.10836364 7.63636364,6.10836364 C8.47927273,6.10836364 9.16363636,6.79345455 9.16363636,7.63563636 C9.16363636,8.47854545 8.47854545,9.16290909 7.63636364,9.16290909 Z" id="Shape"></path>
                </g>
            </g>
        </g>
    </g>
</svg>