<?xml version="1.0" encoding="UTF-8"?>
<svg width="37px" height="30px" viewBox="0 0 37 30" version="1.1" xmlns="http://www.w3.org/2000/svg" xmlns:xlink="http://www.w3.org/1999/xlink">
    <!-- Generator: Sketch 52.2 (67145) - http://www.bohemiancoding.com/sketch -->
    <title>"</title>
    <desc>Created with Sketch.</desc>
    <g id="Page-1" stroke="none" stroke-width="1" fill="none" fill-rule="evenodd">
        <g id="Desktop-HD" transform="translate(-420.000000, -3920.000000)" fill="#E21C21">
            <g id="Group-7" transform="translate(420.000000, 3917.000000)">
                <path d="M13.9184953,33 L0,33 L0,19.3095238 L0.115987461,17.5238095 C0.231974922,16.0952381 0.463949843,14.7857143 0.811912226,13.2380952 C1.39184953,11.2142857 2.43573668,9.42857143 3.94357367,7.88095238 C5.45141066,6.33333333 7.42319749,5.02380952 9.51097179,4.19047619 C11.7147335,3.35714286 13.1065831,3 13.9184953,3 L13.9184953,7.52380952 C11.3667712,8.23809524 9.51097179,9.42857143 8.23510972,10.9761905 C7.07523511,12.5238095 6.37931034,14.6666667 6.14733542,17.5238095 L13.9184953,17.5238095 L13.9184953,33 Z M37,33 L23.0815047,33 L23.0815047,19.3095238 L23.1974922,17.5238095 C23.3134796,16.0952381 23.5454545,14.7857143 23.8934169,13.2380952 C24.4733542,11.2142857 25.5172414,9.42857143 26.9090909,7.88095238 C28.5329154,6.33333333 30.3887147,5.02380952 32.5924765,4.19047619 C34.6802508,3.35714286 36.1880878,3 37,3 L37,7.52380952 C34.4482759,8.23809524 32.476489,9.42857143 31.3166144,10.9761905 C30.1567398,12.5238095 29.460815,14.6666667 29.2288401,17.5238095 L37,17.5238095 L37,33 Z" id="&quot;"></path>
            </g>
        </g>
    </g>
</svg>