<?xml version="1.0" encoding="UTF-8"?>
<svg width="21px" height="30px" viewBox="0 0 21 30" version="1.1" xmlns="http://www.w3.org/2000/svg" xmlns:xlink="http://www.w3.org/1999/xlink">
    <!-- Generator: Sketch 52.2 (67145) - http://www.bohemiancoding.com/sketch -->
    <title>Combined Shape</title>
    <desc>Created with Sketch.</desc>
    <g id="Page-1" stroke="none" stroke-width="1" fill="none" fill-rule="evenodd">
        <g id="Desktop-HD" transform="translate(-1111.000000, -575.000000)" fill="#21262D" fill-rule="nonzero">
            <path d="M1117.18669,598.507527 L1117.18669,601.910847 L1119.85271,601.910847 L1119.85271,605 L1111.47379,605 L1111.47379,601.910847 L1114.13981,601.910847 L1114.13981,598.507527 L1117.18669,598.507527 Z M1123.18294,575 C1128.04485,575 1132,579.010029 1132,583.939391 C1132,588.868752 1128.04485,592.878782 1123.18294,592.878782 L1117.18669,592.878782 L1117.18669,593.564574 L1114.13981,593.564574 L1114.13981,592.878782 L1111,592.878782 L1111,589.171798 L1114.13981,589.171798 L1114.13981,578.706984 L1111,578.706984 L1111,575 L1123.18294,575 Z M1123.18294,589.172107 C1126.02842,589.172107 1128.34375,586.824351 1128.34375,583.939391 C1128.34375,581.054431 1126.02873,578.706984 1123.18294,578.706984 L1117.18669,578.706984 L1117.18669,589.172107 L1123.18294,589.172107 Z M1111,594.182713 L1127.44979,594.182713 L1127.44979,597.889697 L1111,597.889697 L1111,594.182713 Z" id="Combined-Shape"></path>
        </g>
    </g>
</svg>