<?xml version="1.0" encoding="UTF-8"?>
<svg width="30px" height="51px" viewBox="0 0 30 51" version="1.1" xmlns="http://www.w3.org/2000/svg" xmlns:xlink="http://www.w3.org/1999/xlink">
    <!-- Generator: Sketch 52.2 (67145) - http://www.bohemiancoding.com/sketch -->
    <title>clock.1</title>
    <desc>Created with Sketch.</desc>
    <g id="Page-1" stroke="none" stroke-width="1" fill="none" fill-rule="evenodd">
        <g id="Desktop-HD" transform="translate(-705.000000, -4656.000000)" fill="#D5B893" fill-rule="nonzero">
            <g id="clock.1" transform="translate(705.000000, 4656.000000)">
                <path d="M26.7857143,45 L3.21428571,45 C1.44214286,45 0,46.346 0,48 C0,49.654 1.44214286,51 3.21428571,51 L26.7857143,51 C28.5578571,51 30,49.654 30,48 C30,46.346 28.5578571,45 26.7857143,45 Z" id="Shape"></path>
                <path d="M3.00424012,47 C2.44989958,47 2,46.5184 2,45.925 L2,36.92725 C2,34.1387 3.12474894,31.48345 5.08703414,29.6452 L8.65007811,26.3084 C8.87101094,26.102 8.99151975,25.81605 8.99151975,25.5 C8.99151975,25.18395 8.86900245,24.898 8.64806963,24.6916 L5.08703414,21.3548 C3.12474894,19.51655 2,16.8613 2,14.07275 L2,5.075 C2,4.4816 2.44989958,4 3.00424012,4 C3.55858067,4 4.00848025,4.4816 4.00848025,5.075 L4.00848025,14.07275 C4.00848025,16.2421 4.88417764,18.3061 6.40861415,19.73585 L9.97165811,23.07265 C10.6264227,23.6854 11,24.56905 11,25.5 C11,26.43095 10.6244142,27.3146 9.97165811,27.9252 L6.40861415,31.26415 C4.88417764,32.6939 4.00848025,34.7579 4.00848025,36.92725 L4.00848025,45.925 C4.00848025,46.5184 3.55858067,47 3.00424012,47 Z" id="Shape"></path>
                <path d="M26.9957599,47 C26.4414193,47 25.9915198,46.5184 25.9915198,45.925 L25.9915198,36.92725 C25.9915198,34.7579 25.1158224,32.6939 23.5913859,31.26415 L20.0283419,27.92735 C19.3735773,27.3146 19,26.43095 19,25.5 C19,24.56905 19.3755858,23.6854 20.0283419,23.0748 L23.5913859,19.73585 C25.1158224,18.3061 25.9915198,16.2421 25.9915198,14.07275 L25.9915198,5.075 C25.9915198,4.4816 26.4414193,4 26.9957599,4 C27.5501004,4 28,4.4816 28,5.075 L28,14.07275 C28,16.8613 26.8752511,19.51655 24.9129659,21.3548 L21.3499219,24.6916 C21.1289891,24.898 21.0084802,25.18395 21.0084802,25.5 C21.0084802,25.81605 21.1309975,26.102 21.3519304,26.3084 L24.9129659,29.6452 C26.8752511,31.48345 28,34.1387 28,36.92725 L28,45.925 C28,46.5184 27.5501004,47 26.9957599,47 Z" id="Shape"></path>
                <g id="Group">
                    <path d="M26.7857143,0 L3.21428571,0 C1.44214286,0 0,1.43777273 0,3.20454545 C0,4.97131818 1.44214286,6.40909091 3.21428571,6.40909091 L26.7857143,6.40909091 C28.5578571,6.40909091 30,4.97131818 30,3.20454545 C30,1.43777273 28.5578571,0 26.7857143,0 Z" id="Shape"></path>
                    <path d="M15,24.5681818 C15.2742857,24.5681818 15.5485714,24.4635 15.7585714,24.2562727 L21.1157143,18.9153636 C21.4221429,18.6098636 21.5142857,18.1505455 21.3471429,17.7510455 C21.1821429,17.3515455 20.79,17.0909091 20.3571429,17.0909091 L9.64285714,17.0909091 C9.21,17.0909091 8.81785714,17.3515455 8.65285714,17.7510455 C8.48571429,18.1505455 8.57785714,18.6077273 8.88428571,18.9153636 L14.2414286,24.2562727 C14.4514286,24.4635 14.7257143,24.5681818 15,24.5681818 Z" id="Shape"></path>
                    <path d="M15.72,33.3913636 C15.2957143,33.0089545 14.6442857,33.0217727 14.2414286,33.4276818 L3.52714286,44.1095 C3.10928571,44.5260909 3.10928571,45.2033182 3.52714286,45.6199091 C3.945,46.0365 4.62428571,46.0365 5.04214286,45.6199091 L5.80071429,44.8636364 L25.1914286,44.8636364 L26.0635714,45.6540909 C26.2692857,45.8399545 26.5264286,45.9318182 26.7835714,45.9318182 C27.075,45.9318182 27.3642857,45.8143182 27.5764286,45.5814545 C27.975,45.1435 27.9407143,44.4684091 27.5035714,44.0710455 L15.72,33.3913636 Z" id="Shape"></path>
                </g>
            </g>
        </g>
    </g>
</svg>