<?xml version="1.0" encoding="UTF-8"?>
<svg width="62px" height="62px" viewBox="0 0 62 62" version="1.1" xmlns="http://www.w3.org/2000/svg" xmlns:xlink="http://www.w3.org/1999/xlink">
    <!-- Generator: Sketch 52.2 (67145) - http://www.bohemiancoding.com/sketch -->
    <title>Shape</title>
    <desc>Created with Sketch.</desc>
    <g id="Page-1" stroke="none" stroke-width="1" fill="none" fill-rule="evenodd">
        <g id="Desktop-HD" transform="translate(-223.000000, -4645.000000)" fill="#D5B893" fill-rule="nonzero">
            <g id="icon" transform="translate(223.000000, 4645.000000)">
                <path d="M45.3076923,59.6095003 L45.3076923,62 L16.6923077,62 L16.6923077,59.6095003 C16.6923077,58.292335 17.763,57.2190006 19.0769231,57.2190006 L23.8771538,57.2190006 C24.0035385,54.235657 25.9350769,51.7447563 28.6153846,50.7909469 L28.6153846,22.7623381 C27.3586923,21.9663017 26.5169231,20.5702498 26.5169231,18.9686151 L28.6153846,18.9686151 L33.3846154,18.9686151 L35.4830769,18.9686151 C35.4830769,20.5702498 34.6413077,21.9663017 33.3846154,22.7623381 L33.3846154,50.7885564 C36.0649231,51.7423658 37.9964615,54.2332665 38.1228462,57.2166101 L42.9230769,57.2166101 C44.237,57.2190006 45.3076923,58.292335 45.3076923,59.6095003 Z M62,38.0926126 C60.2520769,43.0266039 55.5973077,46.586058 50.0769231,46.586058 C44.5565385,46.586058 39.9017692,43.0242134 38.1538462,38.0926126 L40.9056923,38.0926126 L48.9609231,16.6904688 C49.3090769,15.758174 50.8423846,15.758174 51.1929231,16.6904688 L59.2481538,38.0926126 L62,38.0926126 Z M56.699,38.0926126 L50.0769231,20.5009254 L43.4548462,38.0950031 L56.699,38.0950031 L56.699,38.0926126 Z M11.9230769,14.2139112 C13.0033077,14.2139112 13.8832308,13.4895898 14.1884615,12.5070944 C14.9777692,12.2058914 15.7861538,11.7995065 16.616,11.3787785 C18.4402308,10.4560457 20.5076923,9.40661629 22.6538462,9.40661629 C24.7141538,9.40661629 26.0018462,10.3604257 26.7386923,11.1731956 C26.7100769,11.3787785 26.6766923,11.5843615 26.6766923,11.797116 C26.6766923,14.1900062 28.613,16.1310919 31,16.1310919 C33.387,16.1310919 35.3233077,14.1900062 35.3233077,11.797116 C35.3233077,11.5843615 35.2899231,11.381169 35.2613077,11.1755861 C35.9957692,10.3652067 37.2834615,9.40661629 39.3461538,9.40661629 C41.4923077,9.40661629 43.5597692,10.4536552 45.3816154,11.376388 C46.2138462,11.797116 47.0222308,12.2035009 47.8115385,12.5047039 C48.1167692,13.4871993 48.9966923,14.2115207 50.0769231,14.2115207 C51.4075385,14.2115207 52.4853846,13.1310148 52.4853846,11.797116 C52.4853846,10.4632171 51.4075385,9.38271129 50.0769231,9.38271129 C49.3901538,9.38271129 48.7773077,9.67913325 48.3385385,10.1428902 C47.7495385,9.89427822 47.1128462,9.57634176 46.4570769,9.24406231 C44.3967692,8.19941394 42.0622308,7.01611659 39.3461538,7.01611659 C36.9710769,7.01611659 35.3161538,7.92211598 34.193,8.89743985 C33.6898462,8.34045342 33.046,7.92450648 32.3139231,7.68784701 C33.2033846,7.20974707 33.8281538,6.29896669 33.8281538,5.22085133 C33.8281538,3.65507403 31,0 31,0 C31,0 28.1718462,3.65507403 28.1718462,5.22085133 C28.1718462,6.30135719 28.7966154,7.20974707 29.6860769,7.68784701 C28.954,7.92211598 28.3101538,8.34045342 27.807,8.89743985 C26.6838462,7.92211598 25.0289231,7.01611659 22.6538462,7.01611659 C19.9377692,7.01611659 17.6008462,8.19941394 15.5405385,9.24406231 C14.8847692,9.57873226 14.2504615,9.89666872 13.6614615,10.1428902 C13.2226923,9.68152375 12.6098462,9.38271129 11.9230769,9.38271129 C10.5924615,9.38271129 9.51461538,10.4632171 9.51461538,11.797116 C9.51461538,13.1310148 10.5924615,14.2139112 11.9230769,14.2139112 Z M11.9230769,46.5884485 C6.40269231,46.5884485 1.74792308,43.0266039 0,38.0950031 L2.75184615,38.0950031 L10.8070769,16.6928593 C11.1552308,15.7605645 12.6885385,15.7605645 13.0390769,16.6928593 L21.0943077,38.0950031 L23.8461538,38.0950031 C22.0982308,43.0266039 17.4434615,46.5884485 11.9230769,46.5884485 Z M18.5451538,38.0926126 L11.9230769,20.5009254 L5.301,38.0950031 L18.5451538,38.0950031 L18.5451538,38.0926126 Z" id="Shape"></path>
            </g>
        </g>
    </g>
</svg>