<?xml version="1.0" encoding="UTF-8"?>
<svg width="39px" height="39px" viewBox="0 0 39 39" version="1.1" xmlns="http://www.w3.org/2000/svg" xmlns:xlink="http://www.w3.org/1999/xlink">
    <!-- Generator: Sketch 52.2 (67145) - http://www.bohemiancoding.com/sketch -->
    <title>whatsapp</title>
    <desc>Created with Sketch.</desc>
    <g id="Page-1" stroke="none" stroke-width="1" fill="none" fill-rule="evenodd">
        <g id="Desktop-HD" transform="translate(-488.000000, -1895.000000)" fill="#D5B893" fill-rule="nonzero">
            <g id="whatsapp" transform="translate(488.000000, 1895.000000)">
                <path d="M19.5001156,0 C8.74755435,0 0.000231204416,8.747375 0.000231204416,19.5 C0.000231204416,23.255375 1.0629749,26.882375 3.08121294,30.0235 L0.0538558865,37.895 C-0.0598934391,38.192375 0.00998114661,38.527125 0.230979836,38.754625 C0.386978912,38.913875 0.596602669,39 0.812726388,39 C0.905350839,39 0.996350299,38.985375 1.08572477,38.952875 L9.20905161,36.05225 C12.3030333,37.98275 15.8536372,39 19.5001156,39 C30.2526769,39 39,30.252625 39,19.5 C39,8.747375 30.2526769,0 19.5001156,0 Z M29.2500578,25.1875 C29.2500578,27.015625 26.9994461,29.25 24.3750867,29.25 C21.8222268,29.25 16.9212559,26.196625 14.8623931,24.13775 C12.8035303,22.07725 9.7501734,17.17625 9.7501734,14.625 C9.7501734,11.999 11.9845352,9.75 13.8126493,9.75 L15.4376397,9.75 C15.7463879,9.75 16.0291362,9.9255 16.1656354,10.203375 C16.1672604,10.205 17.1455046,12.194 17.7857508,13.442 C18.5072465,14.850875 17.1503795,16.508375 16.3785091,17.29 C16.6547575,17.9985 17.2998786,19.4025 18.4487468,20.551375 C19.597615,21.70025 21.0016067,22.347 21.7101025,22.621625 C22.4900979,21.848125 24.1475881,20.489625 25.5580797,21.214375 C26.8060723,21.85625 28.7934355,22.832875 28.7950605,22.832875 C29.0745588,22.969375 29.2500578,23.25375 29.2500578,23.5625 L29.2500578,25.1875 Z" id="Shape"></path>
            </g>
        </g>
    </g>
</svg>